<svg width="368" height="27" viewBox="0 0 368 27" fill="none" xmlns="http://www.w3.org/2000/svg">
<path d="M360.939 6.80398H356.179V4.28399H360.939V0.0839844H363.655V19.124H360.939V6.80398ZM358.699 12.88C356.291 13.272 352.987 13.524 350.467 13.524H349.179V0.643986H351.979V11.004C353.463 11.004 356.795 10.668 358.699 10.36V12.88ZM365.223 0.0839844H367.939V19.124H365.223V0.0839844Z" fill="black"/>
<path d="M322.024 26.404C320.624 25.508 319 23.856 317.824 21.84C316.648 23.856 315.024 25.508 313.624 26.404L311.776 24.612C313.96 23.436 316.424 20.328 316.424 17.024V15.484H319.224V17.024C319.224 19.404 320.484 21.812 322.024 23.24C323.536 21.812 324.824 19.404 324.824 17.024V15.484H327.624V17.024C327.624 20.328 330.088 23.436 332.272 24.612L330.424 26.404C329.024 25.508 327.4 23.856 326.224 21.84C325.048 23.856 323.424 25.508 322.024 26.404ZM311.664 5.54399H319.224V3.10799H311.524V0.643986H322.024V7.89598H314.464V10.724C316.452 10.724 321.128 10.388 323.984 9.93999V12.432C320.988 12.88 317.012 13.244 313.512 13.244H311.664V5.54399ZM329.864 14.364H327.064V9.32399H323.144V6.80398H327.064V5.12398H323.144V2.60399H327.064V0.0839844H329.864V14.364Z" fill="black"/>
<path d="M274.428 0.643986H285.348V3.16398H277.228V11.004C280.84 11.004 285.292 10.724 288.988 10.22V0.0839844H291.788V5.68399H295.148V8.20399H291.788V19.124H288.988V12.74C284.984 13.244 280 13.524 275.996 13.524H274.428V0.643986Z" fill="black"/>
<path d="M254.832 19.124H252.032V0.0839844H254.832V19.124ZM236.604 13.804L235.26 11.676C239.936 10.304 243.38 7.50398 244.332 3.16398H236.632V0.643986H247.552C247.188 7.11199 242.848 12.124 236.604 13.804Z" fill="black"/>
<path d="M194.92 14.5036H173.64V11.9836H194.92V14.5036ZM191.42 10.4436H177.28V4.31155H188.48V3.02355H177.14V0.643555H191.28V6.60755H180.08V8.06355H191.42V10.4436ZM191.42 26.1236H177.28V19.8516H188.48V18.4236H177.14V16.0436H191.28V22.1476H180.08V23.7436H191.42V26.1236Z" fill="black"/>
<path d="M153.764 0.643555V3.16355H142.564V8.76355H153.904V11.2836H148.164V15.4836H157.404V18.0036H136.124V15.4836H145.364V11.2836H139.764V0.643555H153.764Z" fill="black"/>
<path d="M111.909 14.924H98.4688V12.404H100.569V3.16398H98.6087V0.643986H111.769V3.16398H109.809V12.404H111.909V14.924ZM103.313 12.404H107.065V3.16398H103.313V12.404ZM120.449 8.20399H117.089V19.124H114.289V0.0839844H117.089V5.68399H120.449V8.20399Z" fill="black"/>
<path d="M58.2964 8.20399H54.9364V17.444H52.1364V0.0839844H54.9364V5.68399H58.2964V8.20399ZM37.2964 13.244V0.643986H48.7764V13.244H37.2964ZM45.9764 10.724V3.16398H40.0964V10.724H45.9764ZM41.4964 26.124V16.884H44.2964V23.604H55.2164V26.124H41.4964Z" fill="black"/>
<path d="M0.060791 0.643986H10.9808V3.16398H2.86079V11.004C6.47279 11.004 10.9248 10.724 14.6208 10.22V0.0839844H17.4208V5.68399H20.7808V8.20399H17.4208V19.124H14.6208V12.74C10.6168 13.244 5.63279 13.524 1.62879 13.524H0.060791V0.643986Z" fill="black"/>
</svg>
