<svg width="368" height="27" viewBox="0 0 368 27" fill="none" xmlns="http://www.w3.org/2000/svg">
<path d="M79.4176 4.53287C80.9296 4.72887 79.3616 6.46487 79.2776 6.88487C79.1096 7.75287 78.8856 8.92887 78.5496 10.2169C78.2416 11.4769 77.8776 12.5689 77.6536 13.3809C77.3176 14.5569 75.9736 16.6009 74.6856 16.5449C73.9296 16.5169 74.1256 15.6209 74.2096 15.0609C74.3496 14.2209 74.6016 12.7649 74.7976 11.2809C75.0216 9.54487 75.1896 7.72487 75.2456 6.80087C74.8256 6.82887 72.8096 6.77287 71.1296 6.85687C68.8896 6.96887 66.1736 7.38887 65.4176 7.47287C63.5136 7.69687 64.0176 9.04087 60.3776 5.87687C59.8176 5.40087 59.2576 4.53287 61.1336 4.92487C63.9896 5.54087 74.7976 4.84087 75.2736 4.58887C76.0856 4.16887 77.7936 4.30887 79.4176 4.53287ZM82.8336 21.1089C82.6936 22.4529 81.9376 22.7609 79.6136 22.5089C77.7096 22.3129 73.2856 22.3689 69.4216 22.5929C66.6776 22.7609 63.2616 23.1809 62.4496 23.2369C59.6776 23.4889 60.7416 24.7489 58.1376 22.7329C56.6536 21.5849 55.4776 20.1289 57.0176 20.4929C59.2296 21.0249 60.8256 20.8569 63.3176 20.8569C64.9696 20.8569 65.1376 20.8569 67.1816 20.6609L67.0696 15.5929C67.0696 15.2289 65.9216 14.2769 64.8856 13.8849C64.4936 13.7449 64.1576 13.2129 65.2216 12.9329C65.6696 12.8209 68.2736 12.7649 69.9536 13.0169C71.2416 13.2129 70.7376 14.2489 70.7096 15.0889C70.6816 16.1249 70.6816 17.3849 70.5976 18.8969C70.5696 19.4009 70.5416 20.1569 70.5416 20.5769C71.7736 20.5209 76.7576 20.4089 77.9336 19.5689C78.2976 19.3169 83.0296 19.1209 82.8336 21.1089Z" fill="#312F36"/>
<path d="M51.1374 3.55281L51.1094 19.4288C51.1094 20.8288 51.3334 26.9328 48.9254 26.9328C47.7494 26.9328 47.6934 23.4888 47.6934 21.2208L47.6654 16.0128C46.8814 16.4608 46.2654 16.9648 42.0934 18.5048C39.2654 19.5408 36.0174 20.2968 34.3654 20.3808C32.6294 20.4648 32.4334 18.1128 32.4334 17.4408V14.2208C32.4334 13.2408 32.2374 13.1848 31.0894 12.5688C30.5854 12.3168 29.1854 12.2048 30.7534 11.3648C31.2854 11.0848 34.6454 11.1128 35.5134 11.5608C35.6534 11.6448 39.0974 11.2808 39.7694 11.1408L39.8534 7.41681C39.0974 7.44481 38.1734 7.47281 37.0814 7.58481C36.2974 7.66881 35.7934 7.72481 35.0654 7.83681C33.7494 8.00481 34.0014 8.90081 31.7054 7.33281C30.8374 6.74481 29.7734 5.37281 30.9214 5.54081C33.8614 5.98881 39.9934 5.59681 40.1894 5.34481C40.3574 5.12081 42.2894 5.06481 43.6334 5.26081C44.8374 5.42881 43.8294 6.63281 43.5494 7.47281C43.3254 8.14481 43.1854 8.76081 42.8774 9.54481C42.6534 10.1048 42.4854 10.4688 42.2334 10.9448C43.2974 11.0008 44.2494 12.8488 41.9814 13.0168C39.5454 13.1848 35.7094 13.4648 35.7094 13.4648V16.0128C35.7094 16.4608 35.7094 17.1048 35.9334 17.1888C36.1854 17.3008 36.8574 17.2448 37.3614 17.2168C38.4814 17.1328 40.2454 16.8528 42.9334 16.2928C46.3774 15.5648 46.9374 15.3408 47.6654 15.1168L47.5814 3.35681C47.5814 2.82481 46.6014 1.78881 45.5934 1.17281C44.8374 0.724812 44.5574 0.276811 45.7894 0.0248106C46.6574 -0.143189 49.0094 0.584812 50.2134 0.920811C51.9214 1.39681 51.1374 1.81681 51.1374 3.55281Z" fill="#312F36"/>
<path d="M22.8855 4.50497C24.3695 4.70097 22.8855 6.40897 22.7175 7.10897C22.4095 8.36897 21.7935 10.329 21.2055 12.373C20.5335 14.781 19.4415 17.217 19.0775 18.113C18.5455 19.401 16.5015 21.529 16.9775 18.197C17.1735 16.909 17.7055 14.557 18.0135 12.205C18.2655 10.189 18.4895 7.72497 18.4895 6.99697C17.8175 7.05297 16.1935 6.99697 14.5135 7.13697C12.3015 7.30497 9.94947 7.52898 9.10947 7.69697C7.20547 7.89297 7.70947 9.18097 3.95747 5.93297C3.36947 5.42897 2.80947 4.50497 4.65747 4.89697C7.54147 5.51297 18.1815 4.72897 18.6295 4.53297C19.3575 4.22497 21.2335 4.28097 22.8855 4.50497ZM26.8335 21.081C26.6935 22.425 25.8535 22.733 23.5015 22.481C21.6255 22.285 17.2015 22.369 13.3095 22.593C10.5935 22.761 7.06547 23.209 6.39347 23.265C3.67747 23.545 4.48947 24.749 1.82947 22.789C0.317471 21.669 -0.802529 20.017 0.737471 20.381C3.34147 20.997 5.02147 20.689 7.51347 20.745C9.16547 20.773 15.9975 20.325 16.9775 20.297C18.2935 20.269 20.8135 20.241 21.9055 19.625C22.5495 19.261 27.0295 19.093 26.8335 21.081Z" fill="#312F36"/>
<path d="M203.902 11.9761C205.806 11.9481 205.722 14.8601 203.762 15.0281C202.306 15.1681 201.102 15.1961 200.15 15.2241L200.066 20.1801C200.01 22.9801 199.87 26.9281 197.686 26.9561C196.79 26.9561 196.762 24.1001 196.762 22.2241L196.706 4.10805C196.706 2.62405 195.474 1.86805 194.466 1.16805C193.822 0.720052 193.374 0.440051 194.55 0.0760521C194.914 -0.0359481 198.05 0.524051 199.31 0.916051C201.13 1.50405 200.29 1.98005 200.262 3.63205L200.178 12.8161C200.654 12.7041 201.298 12.5361 201.746 12.2561C202.334 11.8921 203.09 11.9761 203.902 11.9761ZM192.674 8.98005C192.366 9.48405 190.854 13.2361 187.83 16.3441C184.89 19.3681 181.642 21.4121 179.682 22.1961C178.45 22.7001 178.338 22.0281 179.15 21.6081C179.682 21.3281 182.65 18.7801 184.414 16.5121C187.186 12.9561 188.558 8.95205 188.67 8.61605C188.194 8.64405 187.41 8.72805 186.57 8.78405C185.534 8.86805 184.89 9.06405 184.302 9.17605C182.846 9.42805 183.182 10.1841 180.662 8.14005C179.738 7.38405 178.982 6.40405 181.138 6.90805C182.426 7.21605 188.642 6.74005 189.426 6.48805C190.322 6.20805 191.834 6.32005 192.618 6.40405C194.298 6.57205 193.066 8.33605 192.674 8.98005Z" fill="#312F36"/>
<path d="M176.35 15.0003C174.894 15.1123 173.046 15.1403 172.206 15.1683L172.094 20.2363C172.038 23.0083 171.926 27.0683 169.742 26.9283C168.818 26.8723 168.818 23.6803 168.818 21.5803L168.762 4.02428C168.762 2.34428 167.754 1.95228 166.858 1.05628C166.578 0.776275 165.822 0.468276 166.858 0.0202752C167.194 -0.119725 170.162 0.496276 171.366 0.916275C173.158 1.53228 172.29 2.45628 172.29 3.54828L172.234 13.0123C172.654 13.0123 173.018 12.9843 173.774 12.4523C174.558 11.8923 175.426 12.0323 176.238 12.0323C178.058 12.0043 177.946 14.8883 176.35 15.0003ZM166.746 17.1563C167.222 19.1723 165.542 19.9843 164.282 18.6123C163.414 17.6883 163.134 16.9323 162.294 15.6723C161.594 14.6083 161.454 14.2723 161.09 13.7403C160.614 14.1883 159.438 15.6723 156.414 17.6323C154.062 19.1443 151.878 19.8163 151.57 19.9843C150.702 20.4603 150.31 19.9003 150.842 19.6763C151.346 19.4523 154.258 17.4363 156.806 14.4683C158.794 12.1443 160.334 9.28828 160.67 8.47628C160.138 8.50428 159.69 8.50428 158.99 8.53228C158.29 8.56028 157.73 8.58828 157.226 8.64428C155.294 8.86828 155.546 9.98828 153.026 7.77628C152.186 7.04828 151.766 6.09628 152.914 6.43228C153.39 6.57228 155.854 6.74028 158.15 6.65628C159.522 6.60028 161.79 6.43228 161.79 6.23628C161.79 6.06828 164.59 6.18028 165.122 6.32028C166.438 6.68428 165.654 7.58028 165.206 8.25228C164.898 8.67228 164.646 9.20428 163.582 10.6883C162.658 11.9763 162.35 12.3963 162.042 12.7603C162.714 13.2363 164.842 14.5243 165.458 14.7763C165.906 14.9723 166.55 16.3723 166.746 17.1563Z" fill="#312F36"/>
<path d="M147.846 11.4161C146.39 11.5281 144.99 11.5561 144.15 11.5841C144.066 11.9481 144.094 15.5321 141.826 15.5881C140.958 15.6161 140.902 14.1321 140.846 11.5561L140.678 4.05211C140.65 2.40011 139.698 2.00811 138.802 1.11211C138.494 0.804107 137.766 0.496108 138.802 0.0481072C139.138 -0.0918927 142.106 0.524108 143.31 0.944107C145.102 1.56011 144.234 2.48411 144.234 3.57611L144.178 9.42811C144.878 9.31611 144.962 9.40011 145.718 8.86811C146.53 8.30811 146.95 8.50411 147.762 8.50411C149.582 8.47611 149.442 11.3041 147.846 11.4161ZM143.926 18.6121L143.73 22.9801C143.646 24.7441 143.114 26.9281 141.49 26.9561C140.678 26.9841 140.566 25.4161 140.538 24.3241L140.426 18.8921C139.474 18.8921 137.934 19.0041 136.338 19.1441C134.882 19.2561 132.95 19.5081 132.614 19.5361C130.822 19.7321 131.466 21.0761 128.218 18.1921C127.882 17.8841 127.042 16.7081 128.694 17.1561C130.822 17.7441 139.698 17.0441 140.202 16.8481C140.902 16.5681 142.442 16.7081 143.338 16.6801C144.71 16.6521 143.954 17.8281 143.926 18.6121ZM136.45 4.52811C138.242 4.52811 136.842 6.57211 136.394 7.07611C136.058 7.66411 134.658 10.0161 131.55 12.6761C128.918 14.9161 125.614 16.4001 123.85 16.9881C122.562 17.4081 122.646 16.7921 123.318 16.4001C124.494 15.7281 126.09 14.5521 127.63 13.0681C130.626 10.1561 132.026 7.13211 132.194 6.74011C131.774 6.74011 130.766 6.76811 129.87 6.88011C129.226 6.96411 128.638 7.13211 128.274 7.18811C126.93 7.44011 127.462 8.28011 124.858 6.23611C123.906 5.48011 123.178 4.44411 125.334 4.94811C126.314 5.17211 132.278 5.03211 132.922 4.61211C133.454 4.24811 135.638 4.52811 136.45 4.52811Z" fill="#312F36"/>
<path d="M360.047 5.65195C360.523 9.37595 356.855 10.9719 353.691 10.9439C351.283 10.9159 347.447 9.48795 347.503 5.95995C347.559 1.98395 352.655 1.45195 352.907 1.39595C353.075 1.36795 353.495 1.05995 353.243 0.667947C353.075 0.415947 352.907 -0.284052 353.915 0.163947C355.315 0.779947 355.063 1.19995 355.035 1.45195C355.511 1.53595 359.599 1.98395 360.047 5.65195ZM356.883 5.79195C356.771 4.02795 354.923 3.41195 353.859 3.38395C351.899 3.35595 350.779 4.69995 350.751 5.93195C350.723 7.41595 352.095 8.59195 353.859 8.59195C355.679 8.59195 357.023 7.83595 356.883 5.79195ZM361.811 23.2079C363.211 23.3759 363.323 25.5319 361.279 25.5319C356.715 25.5319 351.927 25.7839 350.835 25.7839C350.499 25.7839 349.547 25.9239 348.651 25.4479C348.203 25.1959 347.979 24.7199 347.923 23.6839L347.811 21.9199C347.783 21.3879 346.915 21.1079 346.411 20.9119C345.515 20.5759 346.243 20.1559 346.831 20.0719C348.063 19.8759 350.779 20.2399 350.947 20.3519C351.143 20.4919 356.799 20.0159 357.527 19.9599C357.611 19.2039 357.555 18.5879 357.555 17.9159C357.051 17.9439 356.183 18.0279 354.307 18.1119C352.655 18.1959 351.367 18.3919 350.415 18.4759C349.015 18.6159 349.519 19.4559 346.887 17.6919C345.991 17.1039 345.487 16.0959 346.803 16.4879C347.447 16.6839 349.799 16.6839 353.411 16.4879C355.567 16.3759 357.751 16.1799 357.751 15.9839C357.751 15.8159 359.879 15.8999 360.495 15.9839C361.783 16.1799 361.139 17.0479 360.915 17.6919L360.103 19.9039C360.327 19.9599 360.355 19.9039 360.663 20.1279C361.307 20.6039 361.223 21.6399 359.627 21.6399C356.799 21.6399 352.599 21.9199 351.059 21.9759V23.1519C351.059 23.4599 351.059 23.8239 351.199 23.8799C351.479 23.9919 351.675 23.9639 351.927 23.9639C352.683 23.9639 353.579 23.9639 355.399 23.8799C358.087 23.7399 358.283 23.7959 359.347 23.2919C359.851 23.0399 360.887 23.0959 361.811 23.2079ZM367.411 12.6799C367.383 13.8559 366.963 14.6959 364.275 14.1919C362.399 13.8559 357.863 14.0799 353.971 14.2759C351.171 14.4159 347.643 14.7239 346.803 14.8079C344.451 15.0319 345.263 16.4039 342.155 14.1079C340.839 13.1279 339.999 11.9519 341.427 12.2599C344.059 12.8479 345.823 12.6519 348.399 12.6519C350.023 12.6519 361.811 12.1199 362.651 11.3639C363.183 10.8879 367.439 10.9719 367.411 12.6799Z" fill="#312F36"/>
<path d="M335.463 3.74803L335.407 8.25604C335.407 9.20804 335.463 14.052 333.251 14.052C332.131 14.052 332.019 12.232 331.991 10.272L331.907 4.00003C331.879 2.57203 331.011 2.01204 329.779 1.14404C329.471 0.920035 328.603 0.332036 330.143 0.0240346C330.983 -0.143965 333.251 0.612035 334.483 0.948034C336.191 1.39604 335.491 2.06803 335.463 3.74803ZM336.303 22.984C337.899 23.068 337.983 25.532 336.023 25.532C333.951 25.532 326.699 25.672 325.663 25.672C324.571 25.672 323.507 25.672 322.891 25.112C322.639 24.888 322.387 24.132 322.387 23.46L322.359 21.696C322.359 21.332 322.135 20.828 320.707 20.38C320.007 20.156 319.923 19.876 320.959 19.344C321.491 19.064 325.383 19.316 325.607 19.68C325.663 19.764 330.591 19.372 331.739 19.232L331.851 16.88C330.955 16.936 330.115 16.936 328.743 17.048C327.063 17.188 325.803 17.356 324.935 17.44C323.283 17.608 323.619 18.504 320.987 16.46C320.315 15.928 319.951 14.92 321.099 15.256C323.143 15.844 331.207 15.172 331.487 14.976C331.795 14.752 333.615 14.78 334.903 14.92C336.191 15.06 335.351 16.404 335.211 16.768L334.399 18.952C334.819 19.008 335.015 19.232 335.155 19.372C335.659 19.904 335.519 20.968 333.951 21.024C331.935 21.08 327.427 21.332 325.831 21.416V23.096C325.831 23.348 325.831 23.572 326.027 23.712C326.195 23.824 326.447 23.824 326.643 23.824C327.483 23.824 332.187 23.908 333.111 23.264C333.671 22.872 334.903 22.9 336.303 22.984ZM329.023 11.308C330.199 13.38 328.351 14.892 326.755 13.352C325.747 12.372 323.871 10.076 323.199 9.40404C322.611 9.90804 321.547 11 319.279 12.512C317.431 13.744 315.051 14.808 314.211 15.06C313.371 15.312 313.343 14.836 313.791 14.528C314.715 13.884 317.655 11.56 319.559 9.15204C321.939 6.15604 321.911 5.56803 322.079 5.26004C322.471 4.56003 321.323 3.77603 320.875 3.46804C320.315 3.07604 320.427 2.71203 321.575 2.65604C322.247 2.62803 324.347 3.21604 325.999 3.94404C327.147 4.44803 326.475 5.14804 326.083 5.76404C325.943 5.98803 325.551 6.63203 325.159 7.16403C324.823 7.61204 324.487 8.00404 324.291 8.31204C324.739 8.67604 324.795 8.87204 326.279 9.48804C326.867 9.74004 328.323 10.076 329.023 11.308Z" fill="#312F36"/>
<path d="M307.547 3.60785L307.463 15.1718C307.463 17.0758 307.211 20.4358 305.363 20.4918C304.467 20.5198 304.187 19.0918 304.159 17.6358L304.019 4.08385C303.991 2.43185 303.011 2.01185 302.115 1.11585C301.835 0.835844 301.079 0.527845 302.115 0.0798455C302.451 -0.0601544 305.419 0.555844 306.623 0.975846C308.415 1.59184 307.547 2.51584 307.547 3.60785ZM308.415 22.8438C310.431 23.2078 309.983 25.5598 308.163 25.5318C304.859 25.4758 298.559 25.6718 297.719 25.6718C296.907 25.6718 295.899 25.5878 295.087 24.8878C294.499 24.3838 294.387 23.4598 294.359 22.7038L294.247 20.2958C294.219 19.8758 292.903 19.2878 292.455 19.1478C291.307 18.7838 292.399 18.1958 293.043 18.1398C293.463 18.1118 295.731 18.1118 296.683 18.1958C298.111 18.3358 297.635 19.0358 297.635 19.7918V22.9278C297.635 23.1798 297.691 23.4878 297.831 23.5998C297.999 23.7398 298.419 23.7118 298.587 23.7118C299.091 23.7118 300.407 23.7398 301.583 23.7118C302.871 23.6838 304.467 23.7678 305.755 22.8718C306.007 22.7038 307.351 22.6478 308.415 22.8438ZM301.779 14.6118C302.255 16.1798 300.827 17.4398 299.483 16.0398C299.119 15.6478 298.643 15.2278 297.831 14.1358C297.075 13.1278 296.515 12.4838 295.983 11.8118C295.395 12.3718 294.303 13.4918 292.035 14.9478C289.683 16.4598 287.051 17.4678 286.575 17.6358C285.847 17.8878 285.259 17.5518 285.987 17.1878C286.491 16.9358 289.543 14.9478 292.595 11.5878C294.387 9.59985 295.535 7.49985 295.759 7.02384C295.339 7.02384 294.695 7.05185 293.995 7.07985C293.295 7.10785 292.791 7.16384 291.867 7.24785C290.047 7.41584 290.383 8.25585 288.283 6.54785C287.387 5.81985 286.939 4.83984 287.975 5.17585C288.675 5.39985 291.223 5.45584 293.519 5.37185C294.891 5.31584 296.487 5.25985 296.487 5.03585C296.487 4.86785 299.651 4.97985 300.155 5.23185C301.135 5.73584 300.435 6.29585 299.931 6.99585C299.595 7.47185 299.231 8.03184 298.559 8.95584C297.887 9.87984 297.411 10.3838 296.907 10.9158C297.523 11.3358 299.007 12.2038 300.015 12.4838C300.407 12.5958 301.499 13.6598 301.779 14.6118Z" fill="#312F36"/>
<path d="M268.168 4.53183C269.652 4.72783 268.168 6.43583 268 7.13583C267.692 8.39583 267.076 10.3558 266.488 12.3998C265.816 14.8078 264.724 17.2438 264.36 18.1398C263.828 19.4278 261.784 21.5558 262.26 18.2238C262.456 16.9358 262.988 14.5838 263.296 12.2318C263.548 10.2158 263.772 7.75183 263.772 7.02383C263.1 7.07983 261.476 7.02383 259.796 7.16383C257.584 7.33183 255.232 7.55583 254.392 7.72383C252.488 7.91983 252.992 9.20783 249.24 5.95983C248.652 5.45583 248.092 4.53183 249.94 4.92383C252.824 5.53983 263.464 4.75583 263.912 4.55983C264.64 4.25183 266.516 4.30783 268.168 4.53183ZM272.116 21.1078C271.976 22.4518 271.136 22.7598 268.784 22.5078C266.908 22.3118 262.484 22.3958 258.592 22.6198C255.876 22.7878 252.348 23.2358 251.676 23.2918C248.96 23.5718 249.772 24.7758 247.112 22.8158C245.6 21.6958 244.48 20.0438 246.02 20.4078C248.624 21.0238 250.304 20.7158 252.796 20.7718C254.448 20.7998 261.28 20.3518 262.26 20.3238C263.576 20.2958 266.096 20.2678 267.188 19.6518C267.832 19.2878 272.312 19.1198 272.116 21.1078Z" fill="#312F36"/>
</svg>
