<svg width="369" height="58" viewBox="0 0 369 58" fill="none" xmlns="http://www.w3.org/2000/svg">
<rect width="369" height="57.9672" fill="black"/>
<path d="M184.416 14.0233L184.352 20.9033C184.352 21.1913 184.448 26.7593 181.888 26.7593C180.512 26.7593 180.448 24.1033 180.416 21.8953L180.352 14.5033C180.352 13.4153 179.552 12.2953 178.144 11.2713C177.792 11.0153 176.608 10.4073 178.208 10.0553C179.2 9.83132 181.92 10.5673 183.36 10.9193C185.184 11.3673 184.416 12.4873 184.416 14.0233ZM175.328 16.5833L175.232 21.3833C175.2 23.6233 174.56 25.7993 172.864 25.6713C171.968 25.6073 171.744 24.7113 171.616 24.4233L165.824 24.8393C165.664 25.2873 165.312 26.7273 163.68 26.7913C162.624 26.8233 162.496 25.0313 162.432 23.6553L162.176 17.9273C162.144 17.0313 161.824 16.9033 160.64 16.3273C160.16 16.1033 159.232 15.7193 160.736 15.0793C161.28 14.8553 164.576 15.0793 165.056 15.1753C166.208 15.3673 165.856 15.9433 165.856 16.8393V17.4793L171.456 17.2233V16.2313C171.456 15.6873 170.976 15.1113 170.144 14.5673C169.76 14.3113 168.864 13.8953 170.176 13.4793C170.624 13.3513 173.44 13.6073 174.656 13.9593C175.808 14.3113 175.36 15.3673 175.328 16.5833ZM171.456 22.3433V19.3033L165.856 19.6233V22.6633L171.456 22.3433ZM184.224 29.7993C185.664 30.0553 185.92 32.4233 183.936 32.3593C181.12 32.2633 177.952 32.3593 176.704 32.3913C176.96 32.5513 176.992 32.5833 177.408 32.9353C178.112 33.5433 177.6 34.0873 177.408 34.3753C177.856 34.6633 178.816 35.2393 180.224 35.5273C182.368 35.9753 183.104 36.1033 184.032 37.1273C185.664 38.9513 184.672 42.1193 181.632 39.6873C179.552 38.0233 177.056 35.8153 176.448 35.3353C175.744 35.9433 174.688 37.2873 171.584 38.7273C169.248 39.8153 166.368 40.6793 165.408 40.7753C163.936 40.9353 164.416 40.2633 164.96 40.0713C165.568 39.8473 168.512 38.2793 170.624 36.3593C173.312 33.8953 173.536 33.1593 173.696 32.6473C173.376 32.6153 172.864 32.6153 172.416 32.6473C171.52 32.7113 170.784 32.9353 170.144 33.0313C168.608 33.2873 168.736 34.1193 166.4 31.9433C165.408 31.0153 164.768 29.8633 166.24 30.4073C166.976 30.6953 171.616 30.7593 175.072 30.5993C178.304 30.4393 179.648 30.4393 180.672 29.8633C181.248 29.5433 183.104 29.6073 184.224 29.7993ZM178.656 29.2233C177.344 29.4153 173.504 29.5113 173.024 29.1593C172.128 28.5193 171.744 27.9113 171.104 26.9513C170.848 26.5673 170.496 25.7353 171.712 26.0873C172.608 26.3433 173.152 26.4393 174.08 26.5033C175.392 26.5993 176.448 26.6313 178.368 26.7273C180.288 26.8233 180.224 28.9993 178.656 29.2233Z" fill="white"/>
<path d="M116.915 20.6792C116.851 23.8792 113.875 26.3432 109.619 26.3432C106.835 26.3432 102.643 24.1672 102.963 20.0712C103.315 15.7832 108.211 15.2072 108.659 15.1112C108.947 15.0472 109.587 14.2472 109.075 13.8632C108.691 13.5752 108.563 12.8392 109.587 13.1272C111.859 13.7352 111.347 14.8552 111.283 15.1432C111.667 15.2072 117.011 15.8152 116.915 20.6792ZM113.043 20.0392C112.915 18.4392 111.635 17.3192 109.939 17.3512C107.859 17.3832 106.771 18.7272 106.707 20.1032C106.643 21.7032 107.731 23.2392 109.779 23.3032C112.051 23.3672 113.171 21.7672 113.043 20.0392ZM124.851 14.0552L124.659 33.1272C124.627 36.2952 124.467 40.9352 121.971 40.7752C120.883 40.7112 120.883 37.0952 120.883 34.6632V28.8392C120.051 29.1272 118.003 30.2152 113.427 31.4312C109.171 32.5512 107.283 32.7432 105.907 32.9992C103.699 33.4152 104.051 34.4392 100.947 31.8472C99.3152 30.4712 98.5792 29.2552 100.307 29.7032C102.643 30.3112 105.971 30.2152 110.675 29.6392C116.371 28.9352 119.891 27.9432 120.851 27.6552L120.819 14.5992C120.819 12.7112 119.699 12.2312 118.675 11.2072C118.355 10.8872 117.459 10.5352 118.675 10.0232C119.059 9.86317 122.419 10.5672 123.795 11.0472C125.875 11.7512 124.851 12.8072 124.851 14.0552Z" fill="white"/>
<path d="M86.771 14.0234L86.579 32.6474C86.515 37.5754 86.259 40.8074 84.051 40.8074C82.963 40.8074 82.8669 36.8714 82.8349 34.3114L82.771 26.5354L79.8909 26.6314L79.859 31.6874C79.859 34.0874 79.827 38.5674 77.331 38.4394C76.307 38.3754 76.147 35.3354 76.147 33.2874L76.019 16.5514C76.019 15.1434 75.059 14.5674 73.907 13.7354C73.555 13.4794 72.6589 12.9994 74.227 12.4874C74.803 12.2954 77.491 12.8074 78.867 13.2874C80.531 13.8634 79.923 14.4714 79.923 16.4554L79.8909 24.1994L82.771 24.1354V14.4714C82.771 13.0634 81.235 12.0394 80.467 11.3994C80.083 11.0794 79.027 10.5034 80.563 10.0874C81.331 9.86338 83.923 10.5674 85.747 11.1114C87.827 11.7194 86.771 12.8394 86.771 14.0234ZM74.1309 27.2394C74.8989 30.3434 72.659 31.5594 71.379 29.4794C70.259 27.6554 69.395 25.9594 68.851 25.0314C68.275 25.6394 67.987 26.1194 65.491 28.0394C63.699 29.4154 62.0989 30.3114 60.8829 30.8874C60.4989 31.0794 59.635 30.9514 60.339 30.2794C60.883 29.7674 64.2109 26.6634 65.9389 23.7514C66.9629 21.9914 67.9869 20.0394 68.179 19.6234C68.627 18.6634 68.3389 18.1834 66.9309 17.1274C66.5789 16.8714 65.5229 16.2634 67.4109 16.1034C68.8509 15.9754 70.5789 16.6474 72.339 17.1914C73.715 17.6074 73.075 18.7274 72.6589 19.4954C72.339 20.1034 71.9549 20.8714 71.4109 21.7034C70.9309 22.4714 70.5149 23.0474 70.0349 23.6234C70.4509 23.9434 70.387 24.0714 71.9229 24.8714C73.139 25.5114 73.811 26.0234 74.1309 27.2394Z" fill="white"/>
<path d="M43.2831 19.8792C44.4991 20.1672 44.7871 22.3112 42.5151 22.4712C37.2031 22.8232 32.4351 22.9832 30.4511 22.9832C29.6831 22.9832 28.6911 23.0152 27.7631 22.2472C26.9631 21.5752 26.7711 20.2312 26.7711 19.3032V14.5352C26.7711 13.8632 25.3951 13.2872 24.5951 12.9672C23.7631 12.6472 24.1791 12.0392 24.9151 11.8472C25.6191 11.6552 30.2591 11.9752 30.2911 12.2952C30.3231 12.5832 37.9391 12.3592 39.0591 11.4312C39.6671 10.9192 41.9711 11.1112 42.5471 11.1432C44.4031 11.2392 44.0511 13.6072 42.6111 13.7352C36.9791 14.2472 32.6911 14.4712 30.6111 14.5032V16.6792C31.3151 16.6792 37.6191 16.7432 38.9631 15.6552C39.4431 15.2712 41.3951 15.3352 42.0991 15.4312C43.3791 15.6232 43.5071 17.8312 41.6191 17.9592C34.3231 18.4712 33.0751 18.5992 30.6111 18.6632V20.0072C30.6111 20.3272 30.6431 20.6472 30.8351 20.8072C31.0271 20.9672 31.7311 20.9032 32.0831 20.9032C32.5951 20.9032 38.6431 20.7112 39.6991 19.9752C40.3711 19.4952 42.6431 19.7192 43.2831 19.8792ZM43.5391 31.8472C43.4751 32.4872 42.6431 35.0152 42.1951 36.4232C42.1951 36.4232 42.7711 36.6472 43.0591 36.7752C44.1151 37.1912 43.9871 38.9192 42.2911 38.8552C37.5871 38.6952 32.7551 39.1432 31.8911 39.2072C31.7951 39.5592 31.4751 40.9672 29.7791 40.9672C28.9151 40.9672 28.6591 39.1752 28.4991 37.7992C28.2431 35.3032 28.0831 34.0232 27.8911 32.2312C27.8591 31.8472 27.1871 31.3992 26.5151 31.1112C25.4911 30.6632 25.7471 30.1832 26.5471 29.8952C27.2831 29.6392 31.1871 29.8312 31.2191 30.1192C31.2511 30.3432 33.9071 30.0552 35.6991 29.9592C37.7151 29.8632 39.9871 29.7672 40.0191 29.5432C40.0511 29.3832 42.3231 29.3512 43.2511 29.5112C44.8511 29.7992 43.7951 30.9192 43.5391 31.8472ZM39.5071 31.8792L31.8271 32.2952C31.8271 33.8312 31.8591 34.7912 31.9871 36.9352C34.4511 36.9352 36.9791 36.7432 39.4111 36.5512C39.6031 34.4712 39.5391 32.7112 39.5071 31.8792ZM50.6751 25.4792C50.5791 26.7912 50.1311 27.6872 47.0271 27.0792C45.2031 26.7272 40.0831 27.0792 35.2511 27.2712C32.1471 27.3992 28.3071 27.8792 27.2831 27.9752C24.1471 28.2632 25.1071 29.6712 22.1311 27.3672C20.4351 26.0552 19.0591 24.2312 20.8191 24.6792C23.8591 25.4472 25.9711 25.0632 28.8191 25.2232C30.6431 25.3192 44.2111 24.8712 45.1711 24.0072C45.7471 23.4952 50.8351 23.4632 50.6751 25.4792Z" fill="white"/>
<path d="M353.896 15.8141C354.376 16.1621 353.944 16.5101 353.5 16.4501C350.284 16.0301 349.9 15.7901 349.072 15.5861C348.556 15.8501 348.184 16.0781 347.344 16.4741C346.216 17.0141 344.908 17.3741 344.476 17.4341C343.972 17.5061 343.888 17.3381 344.248 17.2421C344.68 17.1221 346.708 16.3541 348.292 15.2501C350.044 14.0261 350.5 13.5341 350.824 13.1741C350.092 13.2101 347.8 13.4141 347.032 13.6061C346.756 13.6781 346.78 13.9061 345.592 13.3661C345.292 13.2341 345.136 13.0181 345.196 12.8741C345.268 12.6941 345.772 12.9941 346.804 12.9701C347.44 12.9581 347.896 12.9341 348.688 12.8861L348.676 11.9861C348.676 11.6981 348.34 11.4941 348.04 11.3981C347.62 11.2661 347.764 11.0981 347.956 11.0021C348.268 10.8461 349.372 10.9661 349.6 11.0381C350.08 11.1821 349.78 11.6501 349.768 11.9501C349.756 12.1661 349.756 12.5381 349.756 12.8021C350.392 12.7781 350.968 12.7901 351.22 12.6221C351.508 12.4301 352.408 12.5141 352.588 12.5861C353.128 12.8021 352.228 13.1981 352.06 13.3421C351.76 13.6181 350.68 14.5541 349.528 15.3101C350.08 15.4061 350.608 15.5501 351.532 15.4061C352.204 15.2981 353.716 15.6821 353.896 15.8141ZM354.7 18.7061C355.192 18.8501 355.072 19.5581 354.388 19.5221C354.1 19.5101 352.588 19.3781 349.732 19.5101C348.148 19.5821 346.396 19.7621 345.928 19.8701C345.496 19.9661 345.448 20.3861 344.212 19.7261C343.876 19.5461 343.492 19.2341 343.588 19.0181C343.672 18.8381 344.236 19.2461 346.624 19.1861C347.98 19.1501 351.916 19.0301 352.648 18.7181C353.176 18.4901 354.412 18.6221 354.7 18.7061Z" fill="white"/>
<path d="M341.764 11.5541L341.704 18.7781C341.692 20.8781 341.464 21.4301 341.092 21.4541C340.888 21.4661 340.84 20.6621 340.828 19.7021L340.768 11.4341C340.768 10.9421 340.132 10.5341 339.796 10.3781C339.412 10.1981 339.664 10.0901 339.796 10.0421C340.156 9.92214 340.84 10.1621 341.392 10.3301C342.22 10.5821 341.764 11.0381 341.764 11.5541ZM338.932 12.8141C338.992 13.0781 338.572 13.2101 338.5 13.5821C338.212 15.0341 337.876 16.1141 337.708 16.5941C337.864 16.6061 337.984 16.6061 338.152 16.6301C338.656 16.6901 338.548 17.1581 338.212 17.1581C337.984 17.1581 337.192 17.1461 336.556 17.1821C335.848 17.2181 334.864 17.2421 334.3 17.2661C334.276 17.4341 334.204 17.9741 333.832 17.9741C333.592 17.9741 333.532 17.3261 333.508 16.9901C333.472 16.3781 333.412 15.8381 333.376 15.2741C333.316 14.1941 333.256 13.7621 333.244 13.4981C333.22 13.1981 332.644 13.0301 332.512 12.9821C332.188 12.8741 332.416 12.7301 332.524 12.6821C332.932 12.4901 334.084 12.7301 334.252 12.8861C334.372 12.9941 335.536 12.9341 335.908 12.9101C336.436 12.8741 337.204 12.8261 337.36 12.6941C337.648 12.4541 338.872 12.5621 338.932 12.8141ZM337.468 13.2341C337.216 13.2461 336.472 13.3061 335.836 13.3301C335.284 13.3541 334.6 13.3901 334.24 13.4021C334.252 13.7141 334.264 14.0861 334.276 14.7701C334.288 15.6101 334.324 16.4381 334.336 16.8461C334.708 16.8341 335.356 16.8221 336.004 16.7741C336.796 16.7141 336.952 16.6901 337.264 16.6661C337.276 16.4141 337.348 15.8381 337.384 15.2861C337.432 14.5901 337.468 13.5941 337.468 13.2341Z" fill="white"/>
<path d="M331.912 18.706C332.5 18.802 332.608 19.594 331.732 19.486C331.228 19.426 329.404 19.354 326.836 19.522C324.928 19.642 323.86 19.786 323.524 19.822C322.804 19.894 322.972 20.302 322.24 19.906C321.4 19.45 320.992 19.21 321.076 18.994C321.172 18.73 321.388 19.306 324.16 19.234C325.072 19.21 325.756 19.174 326.272 19.138C326.248 18.946 326.212 18.742 326.2 18.49C326.176 18.142 326.128 17.146 326.116 16.87L325.048 16.894C324.88 16.894 324.472 16.906 324.1 16.702C323.752 16.51 323.728 16.054 323.728 15.946L323.716 14.794C323.716 14.386 323.248 14.326 323.104 14.302C322.744 14.242 322.912 14.074 323.02 14.002C323.296 13.834 324.592 13.942 324.76 14.086C324.928 14.23 325.612 14.098 326.764 14.038C327.424 14.002 328.276 13.918 328.552 13.894C328.564 13.666 328.624 13.354 328.66 12.946C328.684 12.634 328.708 12.31 328.72 12.046C328.528 12.058 328.228 12.058 326.812 12.13C325.876 12.178 325.204 12.262 325.012 12.274C324.436 12.31 324.508 12.718 323.884 12.454C323.596 12.334 322.876 11.95 322.948 11.758C323.032 11.53 323.356 11.926 325.696 11.794C326.584 11.746 328.516 11.686 328.732 11.506C328.984 11.29 329.896 11.458 330.04 11.53C330.424 11.722 329.872 11.974 329.728 12.358C329.56 12.814 329.212 13.606 329.152 13.762C329.272 13.798 329.368 13.786 329.44 13.81C329.836 13.954 329.596 14.326 329.284 14.326C328.66 14.326 325.204 14.518 324.7 14.53V16.042C324.7 16.102 324.712 16.342 324.808 16.402C324.964 16.498 325.06 16.498 325.18 16.486C325.432 16.486 327.592 16.558 328.336 16.15C328.852 15.862 329.5 16.006 329.704 16.006C330.292 16.018 330.34 16.666 329.716 16.678C328.72 16.702 327.988 16.774 327.172 16.846C327.16 17.122 327.184 17.518 327.124 18.202C327.076 18.718 327.064 18.898 327.028 19.066C327.688 19.03 329.74 18.946 330.004 18.778C330.424 18.514 331.648 18.658 331.912 18.706Z" fill="white"/>
<path d="M319.252 11.2542L319.204 19.2702C319.192 20.5182 319.048 21.4542 318.58 21.4662C318.316 21.4782 318.244 20.6862 318.244 19.8942L318.208 11.1462C318.208 10.8462 317.584 10.4622 317.38 10.4022C317.02 10.3062 317.164 10.1022 317.332 10.0422C317.752 9.88622 318.712 10.2222 318.904 10.2702C319.588 10.4502 319.252 10.7742 319.252 11.2542ZM316.204 16.4862C316.312 17.7702 314.932 18.4662 313.864 18.4662C312.58 18.4662 311.428 17.7582 311.404 16.6182C311.368 15.1542 313.192 14.8662 313.288 14.8422C313.348 14.8302 313.648 14.7702 313.552 14.5182C313.468 14.3022 313.912 14.3622 314.056 14.4942C314.248 14.6742 314.212 14.7702 314.212 14.8662C314.332 14.8902 316.084 14.9862 316.204 16.4862ZM315.232 16.4622C315.184 15.6942 314.536 15.2742 313.84 15.2742C313.156 15.2742 312.472 15.7542 312.46 16.4982C312.448 17.2782 313.144 17.7462 313.876 17.7462C314.68 17.7462 315.28 17.3142 315.232 16.4622ZM317.344 12.8502C317.728 12.9222 317.704 13.4862 317.068 13.4862C316.036 13.4862 313.372 13.5942 311.704 13.8702C311.476 13.9062 311.344 14.2422 310.264 13.6542C310.036 13.5342 309.856 13.3782 309.904 13.2582C309.952 13.1142 310.264 13.3302 311.512 13.3302C312.172 13.3302 312.988 13.2582 313.336 13.2462L313.324 12.4782C313.324 12.2502 312.844 11.9982 312.724 11.9742C312.328 11.8902 312.532 11.6862 312.7 11.6142C313.024 11.4702 313.984 11.6502 314.116 11.6742C314.668 11.7822 314.404 12.1782 314.368 12.5142C314.344 12.8022 314.356 13.0062 314.368 13.1502C314.668 13.1382 315.436 13.1262 315.844 12.9222C316.3 12.7062 317.032 12.7902 317.344 12.8502Z" fill="white"/>
<path d="M303.875 11.41L303.803 18.658C303.779 20.758 303.539 21.43 303.191 21.454C302.963 21.466 302.939 20.698 302.927 19.738L302.843 11.446C302.843 10.882 302.159 10.51 301.907 10.402C301.475 10.222 301.739 10.054 302.015 10.006C302.303 9.958 303.095 10.21 303.467 10.33C304.271 10.582 303.875 10.966 303.875 11.41ZM301.331 16.918C301.643 17.41 301.295 17.818 300.899 17.602C300.599 17.446 300.191 16.906 299.651 16.354C299.147 15.838 298.679 15.37 298.379 15.094C298.019 15.478 297.467 15.946 296.735 16.534C295.559 17.47 294.611 17.89 294.467 17.938C294.251 18.01 294.227 17.842 294.407 17.734C294.515 17.662 296.015 16.654 297.755 14.458C298.583 13.414 298.823 12.79 298.907 12.646C299.099 12.346 298.547 11.926 298.295 11.818C297.887 11.638 298.199 11.494 298.355 11.458C298.823 11.35 299.771 11.842 300.095 12.058C300.575 12.382 300.227 12.646 299.951 13.078C299.483 13.81 298.979 14.422 298.631 14.842C298.955 15.058 299.303 15.37 300.143 15.706C300.791 15.958 301.079 16.534 301.331 16.918Z" fill="white"/>
<path d="M292.547 11.4581C292.991 11.5421 293.039 12.0701 292.391 12.1181C292.151 12.1301 290.699 12.0821 288.959 12.1661C287.843 12.2261 286.775 12.3341 286.487 12.3941C286.199 12.4541 286.055 12.7061 285.119 12.2021C284.723 11.9861 284.603 11.8181 284.651 11.6861C284.699 11.5421 285.059 11.8421 286.307 11.8661C287.759 11.8901 288.011 11.8181 288.287 11.8061L288.275 11.1941C288.275 10.9661 287.843 10.6901 287.615 10.6181C287.351 10.5341 287.387 10.3661 287.603 10.2941C288.071 10.1381 288.947 10.3421 289.151 10.4021C289.631 10.5341 289.283 10.9541 289.283 11.2901C289.283 11.4461 289.295 11.6141 289.295 11.7461C289.655 11.7221 290.747 11.6621 291.143 11.4581C291.587 11.2301 292.379 11.4221 292.547 11.4581ZM291.047 14.2781C291.179 15.4661 289.943 16.2221 288.743 16.1981C287.903 16.1861 286.451 15.7781 286.391 14.5061C286.319 13.1021 288.107 12.8501 288.239 12.8261C288.311 12.8141 288.563 12.8141 288.527 12.6221C288.503 12.4661 288.623 12.4421 288.767 12.5141C289.007 12.6341 288.959 12.6941 288.995 12.7901C289.103 12.8141 290.891 12.9221 291.047 14.2781ZM290.099 14.3741C290.087 13.7861 289.511 13.2701 288.743 13.2821C288.119 13.2941 287.351 13.7141 287.399 14.4341C287.447 15.1301 288.059 15.5261 288.779 15.5261C289.583 15.5261 290.111 15.0461 290.099 14.3741ZM294.071 16.4381C294.587 16.5821 294.599 17.2781 293.951 17.2421C293.699 17.2301 293.099 17.1821 291.875 17.1461C290.891 17.1221 289.787 17.1821 289.355 17.1821L289.319 19.4141C289.307 20.4821 289.127 21.4421 288.647 21.4421C288.395 21.4421 288.335 20.4701 288.335 19.8701L288.323 17.2541C288.023 17.2661 285.971 17.3741 285.359 17.5541C284.891 17.6981 284.999 17.9741 283.547 17.1581C283.211 16.9661 283.103 16.7501 283.163 16.6301C283.259 16.4501 283.859 17.0261 288.179 16.7981C290.219 16.6901 291.743 16.6301 292.187 16.4141C292.631 16.1981 293.795 16.3661 294.071 16.4381Z" fill="white"/>
<path d="M282.708 18.706C283.296 18.802 283.404 19.594 282.528 19.486C282.024 19.426 280.2 19.354 277.632 19.522C275.724 19.642 274.656 19.786 274.32 19.822C273.6 19.894 273.768 20.302 273.036 19.906C272.196 19.45 271.788 19.21 271.872 18.994C271.968 18.73 272.184 19.306 274.956 19.234C275.868 19.21 276.552 19.174 277.068 19.138C277.044 18.946 277.008 18.742 276.996 18.49C276.972 18.142 276.924 17.146 276.912 16.87L275.844 16.894C275.676 16.894 275.268 16.906 274.896 16.702C274.548 16.51 274.524 16.054 274.524 15.946L274.512 14.794C274.512 14.386 274.044 14.326 273.9 14.302C273.54 14.242 273.708 14.074 273.816 14.002C274.092 13.834 275.388 13.942 275.556 14.086C275.724 14.23 276.408 14.098 277.56 14.038C278.22 14.002 279.072 13.918 279.348 13.894C279.36 13.666 279.42 13.354 279.456 12.946C279.48 12.634 279.504 12.31 279.516 12.046C279.324 12.058 279.024 12.058 277.608 12.13C276.672 12.178 276 12.262 275.808 12.274C275.232 12.31 275.304 12.718 274.68 12.454C274.392 12.334 273.672 11.95 273.744 11.758C273.828 11.53 274.152 11.926 276.492 11.794C277.38 11.746 279.312 11.686 279.528 11.506C279.78 11.29 280.692 11.458 280.836 11.53C281.22 11.722 280.668 11.974 280.524 12.358C280.356 12.814 280.008 13.606 279.948 13.762C280.068 13.798 280.164 13.786 280.236 13.81C280.632 13.954 280.392 14.326 280.08 14.326C279.456 14.326 276 14.518 275.496 14.53V16.042C275.496 16.102 275.508 16.342 275.604 16.402C275.76 16.498 275.856 16.498 275.976 16.486C276.228 16.486 278.388 16.558 279.132 16.15C279.648 15.862 280.296 16.006 280.5 16.006C281.088 16.018 281.136 16.666 280.512 16.678C279.516 16.702 278.784 16.774 277.968 16.846C277.956 17.122 277.98 17.518 277.92 18.202C277.872 18.718 277.86 18.898 277.824 19.066C278.484 19.03 280.536 18.946 280.8 18.778C281.22 18.514 282.444 18.658 282.708 18.706Z" fill="white"/>
<path d="M269.579 11.8302C269.915 12.0582 269.387 12.4542 269.339 12.6702C269.063 13.8102 268.787 14.7702 268.715 14.9982C268.811 14.9982 268.883 15.0222 269.003 15.0582C269.459 15.1902 269.291 15.7182 268.799 15.6822C268.607 15.6702 264.575 15.6342 264.191 15.6462C264.167 15.8502 264.143 16.2342 263.735 16.2582C263.519 16.2702 263.399 15.7902 263.351 15.3702L263.075 12.6102C263.039 12.2982 262.643 12.1302 262.523 12.0822C262.163 11.9502 262.439 11.7582 262.535 11.6982C262.739 11.5782 263.975 11.7462 264.071 11.8902C264.167 12.0222 268.091 11.9382 268.235 11.8062C268.463 11.5902 269.435 11.7342 269.579 11.8302ZM268.211 12.3582C267.839 12.3462 266.999 12.3822 266.231 12.3942C265.283 12.4062 264.599 12.4182 264.107 12.4422C264.119 12.8982 264.131 13.4862 264.143 13.9542C264.155 14.6382 264.167 14.9382 264.179 15.2022C264.671 15.2022 265.595 15.1902 266.279 15.1662C267.071 15.1422 267.683 15.1062 268.043 15.0582C268.091 14.6262 268.103 14.4942 268.151 13.6782C268.199 12.9582 268.199 12.7662 268.211 12.3582ZM271.475 18.7302C272.099 18.8742 272.051 19.4502 271.439 19.5462C271.283 19.5702 269.231 19.4382 266.219 19.5702C263.027 19.7142 263.027 19.8822 262.715 19.9302C262.403 19.9782 262.439 20.3742 261.011 19.5222C260.579 19.2702 260.495 19.0782 260.579 18.9582C260.651 18.8622 261.371 19.2462 263.795 19.2222C265.283 19.1982 265.247 19.1862 265.799 19.1502L265.763 17.4342C265.751 17.0982 265.439 16.9782 265.127 16.8582C264.779 16.7262 264.983 16.6062 265.091 16.5222C265.379 16.3062 266.363 16.5822 266.543 16.6182C267.143 16.7382 266.891 17.1702 266.867 17.5782L266.771 19.0902C267.551 19.0302 269.147 18.9342 269.483 18.7422C269.927 18.4782 271.247 18.6822 271.475 18.7302Z" fill="white"/>
<path d="M353.104 26.848L352.972 35.272C352.972 35.608 352.936 36.94 352.372 36.94C352.132 36.94 352.108 36.076 352.108 35.836L352.048 26.74C352.048 26.476 351.376 25.984 351.136 25.888C350.476 25.624 351.124 25.492 351.208 25.48C351.556 25.42 352.516 25.708 352.78 25.828C353.524 26.164 353.116 26.368 353.104 26.848ZM350.368 28.612C350.272 28.864 349.588 30.424 348.724 31.6C347.2 33.664 345.52 34.672 345.256 34.816C344.716 35.104 344.656 34.96 344.812 34.816C344.932 34.708 346.192 33.76 347.212 32.332C348.172 30.988 348.376 30.556 348.496 30.268C348.148 30.4 347.788 30.5801 346.912 30.8801C346.048 31.18 345.844 31.204 345.628 31.2761C345.376 31.3481 345.568 31.78 344.332 31.168C343.6 30.808 343.6 30.52 343.636 30.46C343.708 30.328 344.044 30.616 344.98 30.532C346.888 30.364 348.22 29.992 348.664 29.884C348.76 29.704 348.844 29.5 349 29.116C349.18 28.684 349.204 28.576 349.288 28.264C348.952 28.3 348.316 28.324 347.608 28.384C346.804 28.456 346.432 28.48 346.132 28.492C345.82 28.516 345.832 28.804 345.028 28.36C344.632 28.144 344.488 27.952 344.524 27.88C344.596 27.724 344.872 27.964 345.904 27.988C346.996 28.012 348.916 27.916 349.024 27.844C349.336 27.652 350.128 27.688 350.308 27.712C351.076 27.796 350.464 28.432 350.368 28.612Z" fill="white"/>
<path d="M343.288 30.6521C343.9 30.6881 343.864 31.3361 343.156 31.3961C342.916 31.4201 341.836 31.4441 341.104 31.4681L341.044 35.1161C341.044 35.4761 340.984 36.9521 340.468 36.9161C340.276 36.9041 340.216 36.1241 340.204 35.5841L340.072 26.8121C340.06 26.3681 339.232 25.9361 339.136 25.9121C338.404 25.7081 339.172 25.4921 339.22 25.4801C339.484 25.3961 340.624 25.7201 340.828 25.8041C341.5 26.0801 341.116 26.1041 341.116 26.6921L341.104 31.0721C341.524 31.0481 341.788 31.0121 341.992 30.8561C342.388 30.5561 343.096 30.6401 343.288 30.6521ZM337.948 30.5201C337.96 31.6001 337.024 32.9561 335.14 32.9681C333.676 32.9801 332.284 32.0321 332.392 30.5441C332.524 28.6361 334.588 28.3721 334.708 28.3241C334.852 28.2641 334.924 28.1801 334.948 28.0481C334.972 27.9161 334.816 27.8081 334.84 27.7481C334.888 27.6041 335.56 27.7001 335.74 28.0121C335.848 28.2041 335.752 28.3361 335.728 28.4321C335.86 28.4681 337.936 28.5761 337.948 30.5201ZM337.012 30.3761C336.94 29.6561 336.232 28.8521 335.26 28.8521C334.468 28.8521 333.424 29.4521 333.364 30.4241C333.268 31.7681 334.504 32.2121 335.152 32.2241C336.484 32.2481 337.096 31.3121 337.012 30.3761Z" fill="white"/>
<path d="M331.972 31.5281C331.12 31.6361 330.184 31.6121 329.764 31.6241L329.728 34.9001C329.716 36.3641 329.524 36.9281 329.152 36.9281C328.972 36.9281 328.888 36.3761 328.876 35.4041L328.792 26.8361C328.792 26.3441 327.952 25.9361 327.616 25.8641C327.316 25.8041 327.484 25.6241 327.58 25.5521C327.868 25.3361 328.96 25.6001 329.212 25.6601C330.232 25.9121 329.788 26.0201 329.788 26.9201L329.764 31.1921C329.908 31.1921 330.244 31.2521 330.592 30.9641C330.892 30.7241 331.756 30.7841 331.972 30.8081C332.5 30.8561 332.428 31.4681 331.972 31.5281ZM327.244 28.6001C327.1 28.9721 326.62 30.2681 325.312 32.1641C324.208 33.7601 322.564 34.9121 322.3 35.0681C321.796 35.3561 321.688 35.2241 321.88 35.0321C322.084 34.8281 323.26 33.8441 324.256 32.3201C324.964 31.2401 325.228 30.6761 325.348 30.4121C324.94 30.6041 324.82 30.6401 324.172 30.8921C323.56 31.1321 323.38 31.2041 323.116 31.3001C322.792 31.4201 322.96 31.7801 321.712 31.2041C320.968 30.8561 320.992 30.5921 321.028 30.5321C321.1 30.4001 321.532 30.6761 322.336 30.6041C324.208 30.4361 325.072 30.1241 325.528 29.9921C325.672 29.7041 325.756 29.5721 325.912 29.1041C326.056 28.6601 326.056 28.5521 326.128 28.2881C325.804 28.3121 325.336 28.3361 324.628 28.4081C323.896 28.4801 323.716 28.5521 323.488 28.5881C323.176 28.6361 323.26 28.8641 322.396 28.4321C321.916 28.1921 321.844 28.0121 321.868 27.9401C321.928 27.7841 322.252 27.9761 323.14 28.0001C323.776 28.0121 325.732 27.9281 325.828 27.8561C326.128 27.6281 327.004 27.7721 327.184 27.8081C327.988 27.9521 327.364 28.3721 327.244 28.6001Z" fill="white"/>
<path d="M320.692 30.9161C321.46 30.9521 321.34 31.6721 320.656 31.6721C320.416 31.6721 319.18 31.7561 318.544 31.7921L318.508 35.1881C318.496 35.8601 318.352 36.9521 317.944 36.9401C317.728 36.9281 317.632 36.1481 317.62 35.6081L317.524 32.1281C317.272 32.2841 316.9 32.5721 315.208 33.2921C313.276 34.1201 312.724 34.1681 312.292 34.3001C312.208 34.3241 311.668 34.5281 311.32 34.3601C310.924 34.1801 310.852 33.4481 310.852 33.1841L310.78 28.8881C310.78 28.6241 310.036 28.3961 309.928 28.3721C309.256 28.2401 309.916 27.9641 309.94 27.9521C310.252 27.8081 311.584 28.0121 311.812 28.1561C311.944 28.2401 313.372 28.0481 313.468 27.9641C313.936 27.5801 314.848 27.6281 315.148 27.6281C315.928 27.6161 315.712 28.3961 314.932 28.3601C314.764 28.3481 312.424 28.5401 311.86 28.5761L311.824 30.6641C312.172 30.6281 313.168 30.5801 313.36 30.4241C313.78 30.0761 314.476 30.1121 314.704 30.1121C315.424 30.1001 315.496 30.7361 314.704 30.8561C313.96 30.9641 312.544 31.0241 311.824 31.0601V32.3801C311.824 32.5001 311.8 33.2081 311.896 33.3281C311.992 33.4601 312.664 33.3761 312.772 33.3521C313.192 33.2681 313.804 33.1961 314.92 32.8481C316.588 32.3201 317.188 31.9961 317.524 31.8161L317.512 26.9321C317.512 26.4521 316.684 25.9841 316.48 25.9241C315.724 25.6841 316.504 25.4801 316.6 25.4801C317.08 25.4561 317.98 25.6721 318.316 25.8161C318.916 26.0681 318.556 26.1761 318.556 26.6441L318.544 31.3361C318.88 31.3121 319.252 31.3121 319.504 31.1081C319.864 30.8201 320.512 30.9041 320.692 30.9161Z" fill="white"/>
<path d="M303.875 26.8839L303.803 34.1319C303.779 36.2319 303.539 36.9039 303.191 36.9279C302.963 36.9399 302.939 36.1719 302.927 35.2119L302.843 26.9199C302.843 26.3559 302.159 25.9839 301.907 25.8759C301.475 25.6959 301.739 25.5279 302.015 25.4799C302.303 25.4319 303.095 25.6839 303.467 25.8039C304.271 26.0559 303.875 26.4399 303.875 26.8839ZM301.331 32.3919C301.643 32.8839 301.295 33.2919 300.899 33.0759C300.599 32.9199 300.191 32.3799 299.651 31.8279C299.147 31.3119 298.679 30.8439 298.379 30.5679C298.019 30.9519 297.467 31.4199 296.735 32.0079C295.559 32.9439 294.611 33.3639 294.467 33.4119C294.251 33.4839 294.227 33.3159 294.407 33.2079C294.515 33.1359 296.015 32.1279 297.755 29.9319C298.583 28.8879 298.823 28.2639 298.907 28.1199C299.099 27.8199 298.547 27.3999 298.295 27.2919C297.887 27.1119 298.199 26.9679 298.355 26.9319C298.823 26.8239 299.771 27.3159 300.095 27.5319C300.575 27.8559 300.227 28.1199 299.951 28.5519C299.483 29.2839 298.979 29.8959 298.631 30.3159C298.955 30.5319 299.303 30.8439 300.143 31.1799C300.791 31.4319 301.079 32.0079 301.331 32.3919Z" fill="white"/>
<path d="M292.547 26.932C292.991 27.016 293.039 27.544 292.391 27.592C292.151 27.604 290.699 27.556 288.959 27.64C287.843 27.7 286.775 27.808 286.487 27.868C286.199 27.928 286.055 28.18 285.119 27.676C284.723 27.46 284.603 27.292 284.651 27.16C284.699 27.016 285.059 27.316 286.307 27.34C287.759 27.364 288.011 27.292 288.287 27.28L288.275 26.668C288.275 26.44 287.843 26.164 287.615 26.092C287.351 26.008 287.387 25.84 287.603 25.768C288.071 25.612 288.947 25.816 289.151 25.876C289.631 26.008 289.283 26.428 289.283 26.764C289.283 26.92 289.295 27.088 289.295 27.22C289.655 27.196 290.747 27.136 291.143 26.932C291.587 26.704 292.379 26.896 292.547 26.932ZM291.047 29.752C291.179 30.94 289.943 31.696 288.743 31.672C287.903 31.66 286.451 31.252 286.391 29.98C286.319 28.576 288.107 28.324 288.239 28.3C288.311 28.288 288.563 28.288 288.527 28.096C288.503 27.94 288.623 27.916 288.767 27.988C289.007 28.108 288.959 28.168 288.995 28.264C289.103 28.288 290.891 28.396 291.047 29.752ZM290.099 29.848C290.087 29.26 289.511 28.744 288.743 28.756C288.119 28.768 287.351 29.188 287.399 29.908C287.447 30.604 288.059 31 288.779 31C289.583 31 290.111 30.52 290.099 29.848ZM294.071 31.912C294.587 32.056 294.599 32.752 293.951 32.716C293.699 32.704 293.099 32.656 291.875 32.62C290.891 32.596 289.787 32.656 289.355 32.656L289.319 34.888C289.307 35.956 289.127 36.916 288.647 36.916C288.395 36.916 288.335 35.944 288.335 35.344L288.323 32.728C288.023 32.74 285.971 32.848 285.359 33.028C284.891 33.172 284.999 33.448 283.547 32.632C283.211 32.44 283.103 32.224 283.163 32.104C283.259 31.924 283.859 32.5 288.179 32.272C290.219 32.164 291.743 32.104 292.187 31.888C292.631 31.672 293.795 31.84 294.071 31.912Z" fill="white"/>
<path d="M282.708 34.1799C283.296 34.2759 283.404 35.0679 282.528 34.9599C282.024 34.8999 280.2 34.8279 277.632 34.9959C275.724 35.1159 274.656 35.2599 274.32 35.2959C273.6 35.3679 273.768 35.7759 273.036 35.3799C272.196 34.9239 271.788 34.6839 271.872 34.4679C271.968 34.2039 272.184 34.7799 274.956 34.7079C275.868 34.6839 276.552 34.6479 277.068 34.6119C277.044 34.4199 277.008 34.2159 276.996 33.9639C276.972 33.6159 276.924 32.6199 276.912 32.3439L275.844 32.3679C275.676 32.3679 275.268 32.3799 274.896 32.1759C274.548 31.9839 274.524 31.5279 274.524 31.4199L274.512 30.2679C274.512 29.8599 274.044 29.7999 273.9 29.7759C273.54 29.7159 273.708 29.5479 273.816 29.4759C274.092 29.3079 275.388 29.4159 275.556 29.5599C275.724 29.7039 276.408 29.5719 277.56 29.5119C278.22 29.4759 279.072 29.3919 279.348 29.3679C279.36 29.1399 279.42 28.8279 279.456 28.4199C279.48 28.1079 279.504 27.7839 279.516 27.5199C279.324 27.5319 279.024 27.5319 277.608 27.6039C276.672 27.6519 276 27.7359 275.808 27.7479C275.232 27.7839 275.304 28.1919 274.68 27.9279C274.392 27.8079 273.672 27.4239 273.744 27.2319C273.828 27.0039 274.152 27.3999 276.492 27.2679C277.38 27.2199 279.312 27.1599 279.528 26.9799C279.78 26.7639 280.692 26.9319 280.836 27.0039C281.22 27.1959 280.668 27.4479 280.524 27.8319C280.356 28.2879 280.008 29.0799 279.948 29.2359C280.068 29.2719 280.164 29.2599 280.236 29.2839C280.632 29.4279 280.392 29.7999 280.08 29.7999C279.456 29.7999 276 29.9919 275.496 30.0039V31.5159C275.496 31.5759 275.508 31.8159 275.604 31.8759C275.76 31.9719 275.856 31.9719 275.976 31.9599C276.228 31.9599 278.388 32.0319 279.132 31.6239C279.648 31.3359 280.296 31.4799 280.5 31.4799C281.088 31.4919 281.136 32.1399 280.512 32.1519C279.516 32.1759 278.784 32.2479 277.968 32.3199C277.956 32.5959 277.98 32.9919 277.92 33.6759C277.872 34.1919 277.86 34.3719 277.824 34.5399C278.484 34.5039 280.536 34.4199 280.8 34.2519C281.22 33.9879 282.444 34.1319 282.708 34.1799Z" fill="white"/>
<path d="M269.579 27.3041C269.915 27.5321 269.387 27.9281 269.339 28.1441C269.063 29.2841 268.787 30.2441 268.715 30.4721C268.811 30.4721 268.883 30.4961 269.003 30.5321C269.459 30.6641 269.291 31.1921 268.799 31.1561C268.607 31.1441 264.575 31.1081 264.191 31.1201C264.167 31.3241 264.143 31.7081 263.735 31.7321C263.519 31.7441 263.399 31.2641 263.351 30.8441L263.075 28.0841C263.039 27.7721 262.643 27.6041 262.523 27.5561C262.163 27.4241 262.439 27.2321 262.535 27.1721C262.739 27.0521 263.975 27.2201 264.071 27.3641C264.167 27.4961 268.091 27.4121 268.235 27.2801C268.463 27.0641 269.435 27.2081 269.579 27.3041ZM268.211 27.8321C267.839 27.8201 266.999 27.8561 266.231 27.8681C265.283 27.8801 264.599 27.8921 264.107 27.9161C264.119 28.3721 264.131 28.9601 264.143 29.4281C264.155 30.1121 264.167 30.4121 264.179 30.6761C264.671 30.6761 265.595 30.6641 266.279 30.6401C267.071 30.6161 267.683 30.5801 268.043 30.5321C268.091 30.1001 268.103 29.9681 268.151 29.1521C268.199 28.4321 268.199 28.2401 268.211 27.8321ZM271.475 34.2041C272.099 34.3481 272.051 34.9241 271.439 35.0201C271.283 35.0441 269.231 34.9121 266.219 35.0441C263.027 35.1881 263.027 35.3561 262.715 35.4041C262.403 35.4521 262.439 35.8481 261.011 34.9961C260.579 34.7441 260.495 34.5521 260.579 34.4321C260.651 34.3361 261.371 34.7201 263.795 34.6961C265.283 34.6721 265.247 34.6601 265.799 34.6241L265.763 32.9081C265.751 32.5721 265.439 32.4521 265.127 32.3321C264.779 32.2001 264.983 32.0801 265.091 31.9961C265.379 31.7801 266.363 32.0561 266.543 32.0921C267.143 32.2121 266.891 32.6441 266.867 33.0521L266.771 34.5641C267.551 34.5041 269.147 34.4081 269.483 34.2161C269.927 33.9521 271.247 34.1561 271.475 34.2041Z" fill="white"/>
</svg>
