<svg width="758" height="903" viewBox="0 0 758 903" fill="none" xmlns="http://www.w3.org/2000/svg">
<rect x="612.48" y="15.5" width="15" height="15" fill="white"/>
<rect x="627.48" y="30.5" width="15" height="15" fill="white"/>
<rect x="642.48" y="15.5" width="15" height="15" fill="white"/>
<rect x="627.48" y="0.5" width="15" height="15" fill="white"/>
<rect x="627.48" y="45.5" width="15" height="15" fill="white"/>
<rect x="627.48" y="60.5" width="15" height="15" fill="white"/>
<rect x="195.9" y="539" width="15" height="15" fill="white"/>
<rect x="195.9" y="524" width="15" height="15" fill="white"/>
<rect x="195.9" y="509" width="15" height="15" fill="white"/>
<rect x="195.9" y="569" width="15" height="15" fill="white"/>
<rect x="195.9" y="599" width="15" height="15" fill="white"/>
<rect x="195.9" y="629" width="15" height="15" fill="white"/>
<rect x="180.9" y="659" width="15" height="15" fill="white"/>
<rect x="135.9" y="689" width="15" height="15" fill="white"/>
<rect x="105.9" y="719" width="15" height="15" fill="white"/>
<rect x="90.9004" y="749" width="15" height="15" fill="white"/>
<rect x="75.9004" y="779" width="15" height="15" fill="white"/>
<rect x="45.9004" y="809" width="15" height="15" fill="white"/>
<rect x="45.9004" y="839" width="15" height="15" fill="white"/>
<rect x="255.9" y="629" width="15" height="15" fill="white"/>
<rect x="150.9" y="749" width="15" height="15" fill="white"/>
<rect x="180.9" y="779" width="15" height="15" fill="white"/>
<rect x="195.9" y="794" width="15" height="15" fill="white"/>
<rect x="180.9" y="824" width="15" height="15" fill="white"/>
<rect x="180.9" y="839" width="15" height="15" fill="white"/>
<rect x="195.9" y="824" width="15" height="15" fill="white"/>
<rect x="210.9" y="824" width="15" height="15" fill="white"/>
<rect x="195.9" y="494" width="15" height="15" fill="white"/>
<rect x="195.9" y="554" width="15" height="15" fill="white"/>
<rect x="195.9" y="584" width="15" height="15" fill="white"/>
<rect x="195.9" y="614" width="15" height="15" fill="white"/>
<rect x="180.9" y="644" width="15" height="15" fill="white"/>
<rect x="135.9" y="674" width="15" height="15" fill="white"/>
<rect x="105.9" y="704" width="15" height="15" fill="white"/>
<rect x="90.9004" y="734" width="15" height="15" fill="white"/>
<rect x="75.9004" y="764" width="15" height="15" fill="white"/>
<rect x="45.9004" y="794" width="15" height="15" fill="white"/>
<rect x="255.9" y="584" width="15" height="15" fill="white"/>
<rect x="240.9" y="644" width="15" height="15" fill="white"/>
<rect x="195.9" y="674" width="15" height="15" fill="white"/>
<rect x="165.9" y="704" width="15" height="15" fill="white"/>
<rect x="150.9" y="734" width="15" height="15" fill="white"/>
<rect x="135.9" y="764" width="15" height="15" fill="white"/>
<rect x="165.9" y="809" width="15" height="15" fill="white"/>
<rect x="135.9" y="824" width="15" height="15" fill="white"/>
<rect x="150.9" y="839" width="15" height="15" fill="white"/>
<rect x="105.9" y="839" width="15" height="15" fill="white"/>
<rect x="105.9" y="794" width="15" height="15" fill="white"/>
<rect x="612.48" y="75.5" width="15" height="15" fill="white"/>
<rect x="597.48" y="90.5" width="15" height="15" fill="white"/>
<rect x="612.48" y="105.5" width="15" height="15" fill="white"/>
<rect x="612.48" y="120.5" width="15" height="15" fill="white"/>
<rect x="597.48" y="135.5" width="15" height="15" fill="white"/>
<rect x="612.48" y="135.5" width="15" height="15" fill="white"/>
<rect x="597.48" y="165.5" width="15" height="15" fill="white"/>
<rect x="597.48" y="195.5" width="15" height="15" fill="white"/>
<rect x="642.48" y="90.5" width="15" height="15" fill="white"/>
<rect x="627.48" y="120.5" width="15" height="15" fill="white"/>
<rect x="597.48" y="105.5" width="15" height="15" fill="white"/>
<rect x="597.48" y="120.5" width="15" height="15" fill="white"/>
<rect x="582.48" y="135.5" width="15" height="15" fill="white"/>
<rect x="612.48" y="150.5" width="15" height="15" fill="white"/>
<rect x="627.48" y="90.5" width="15" height="15" fill="white"/>
<rect x="642.48" y="45.5" width="15" height="15" fill="white"/>
<rect x="657.48" y="30.5" width="15" height="15" fill="white"/>
<rect x="657.48" y="15.5" width="15" height="15" fill="white"/>
<rect x="657.48" y="0.5" width="15" height="15" fill="white"/>
<rect x="672.48" y="0.5" width="15" height="15" fill="white"/>
<rect x="657.48" y="60.5" width="15" height="15" fill="white"/>
<rect x="612.48" y="30.5" width="15" height="15" fill="white"/>
<rect x="612.48" y="45.5" width="15" height="15" fill="white"/>
<rect x="612.48" y="60.5" width="15" height="15" fill="white"/>
<rect x="180.9" y="539" width="15" height="15" fill="white"/>
<rect x="180.9" y="524" width="15" height="15" fill="white"/>
<rect x="180.9" y="569" width="15" height="15" fill="white"/>
<rect x="180.9" y="599" width="15" height="15" fill="white"/>
<rect x="180.9" y="629" width="15" height="15" fill="white"/>
<rect x="165.9" y="659" width="15" height="15" fill="white"/>
<rect x="120.9" y="689" width="15" height="15" fill="white"/>
<rect x="90.9004" y="719" width="15" height="15" fill="white"/>
<rect x="75.9004" y="749" width="15" height="15" fill="white"/>
<rect x="60.9004" y="779" width="15" height="15" fill="white"/>
<rect x="30.9004" y="809" width="15" height="15" fill="white"/>
<rect x="240.9" y="599" width="15" height="15" fill="white"/>
<rect x="180.9" y="689" width="15" height="15" fill="white"/>
<rect x="150.9" y="719" width="15" height="15" fill="white"/>
<rect x="90.9004" y="809" width="15" height="15" fill="white"/>
<rect x="90.9004" y="824" width="15" height="15" fill="white"/>
<rect x="180.9" y="554" width="15" height="15" fill="white"/>
<rect x="180.9" y="584" width="15" height="15" fill="white"/>
<rect x="180.9" y="614" width="15" height="15" fill="white"/>
<rect x="165.9" y="644" width="15" height="15" fill="white"/>
<rect x="120.9" y="674" width="15" height="15" fill="white"/>
<rect x="90.9004" y="704" width="15" height="15" fill="white"/>
<rect x="60.9004" y="689" width="15" height="15" fill="white"/>
<rect x="75.9004" y="734" width="15" height="15" fill="white"/>
<rect x="60.9004" y="764" width="15" height="15" fill="white"/>
<rect x="30.9004" y="794" width="15" height="15" fill="white"/>
<rect x="240.9" y="584" width="15" height="15" fill="white"/>
<rect x="240.9" y="614" width="15" height="15" fill="white"/>
<rect x="90.9004" y="644" width="15" height="15" fill="white"/>
<rect x="180.9" y="674" width="15" height="15" fill="white"/>
<rect x="210.9" y="704" width="15" height="15" fill="white"/>
<rect x="240.9" y="734" width="15" height="15" fill="white"/>
<rect x="180.9" y="734" width="15" height="15" fill="white"/>
<rect x="195.9" y="734" width="15" height="15" fill="white"/>
<rect x="150.9" y="704" width="15" height="15" fill="white"/>
<rect x="135.9" y="734" width="15" height="15" fill="white"/>
<rect x="120.9" y="764" width="15" height="15" fill="white"/>
<rect x="90.9004" y="794" width="15" height="15" fill="white"/>
<rect x="597.48" y="75.5" width="15" height="15" fill="white"/>
<rect x="597.48" y="45.5" width="15" height="15" fill="white"/>
<rect x="582.48" y="60.5" width="15" height="15" fill="white"/>
<rect x="150.9" y="569" width="15" height="15" fill="white"/>
<rect x="120.9" y="569" width="15" height="15" fill="white"/>
<rect x="150.9" y="599" width="15" height="15" fill="white"/>
<rect x="120.9" y="599" width="15" height="15" fill="white"/>
<rect x="150.9" y="629" width="15" height="15" fill="white"/>
<rect x="105.9" y="659" width="15" height="15" fill="white"/>
<rect x="120.9" y="629" width="15" height="15" fill="white"/>
<rect x="75.9004" y="659" width="15" height="15" fill="white"/>
<rect x="135.9" y="659" width="15" height="15" fill="white"/>
<rect x="90.9004" y="689" width="15" height="15" fill="white"/>
<rect x="60.9004" y="719" width="15" height="15" fill="white"/>
<rect x="45.9004" y="749" width="15" height="15" fill="white"/>
<rect x="30.9004" y="779" width="15" height="15" fill="white"/>
<rect x="0.900391" y="809" width="15" height="15" fill="white"/>
<rect x="210.9" y="599" width="15" height="15" fill="white"/>
<rect x="210.9" y="629" width="15" height="15" fill="white"/>
<rect x="195.9" y="659" width="15" height="15" fill="white"/>
<rect x="150.9" y="689" width="15" height="15" fill="white"/>
<rect x="120.9" y="719" width="15" height="15" fill="white"/>
<rect x="105.9" y="749" width="15" height="15" fill="white"/>
<rect x="90.9004" y="779" width="15" height="15" fill="white"/>
<rect x="60.9004" y="809" width="15" height="15" fill="white"/>
<rect x="60.9004" y="839" width="15" height="15" fill="white"/>
<rect x="150.9" y="554" width="15" height="15" fill="white"/>
<rect x="150.9" y="584" width="15" height="15" fill="white"/>
<rect x="150.9" y="614" width="15" height="15" fill="white"/>
<rect x="105.9" y="644" width="15" height="15" fill="white"/>
<rect x="120.9" y="614" width="15" height="15" fill="white"/>
<rect x="135.9" y="644" width="15" height="15" fill="white"/>
<rect x="90.9004" y="674" width="15" height="15" fill="white"/>
<rect x="60.9004" y="704" width="15" height="15" fill="white"/>
<rect x="45.9004" y="734" width="15" height="15" fill="white"/>
<rect x="45.9004" y="704" width="15" height="15" fill="white"/>
<rect x="30.9004" y="764" width="15" height="15" fill="white"/>
<rect x="0.900391" y="794" width="15" height="15" fill="white"/>
<rect x="210.9" y="584" width="15" height="15" fill="white"/>
<rect x="210.9" y="614" width="15" height="15" fill="white"/>
<rect x="195.9" y="644" width="15" height="15" fill="white"/>
<rect x="150.9" y="674" width="15" height="15" fill="white"/>
<rect x="120.9" y="704" width="15" height="15" fill="white"/>
<rect x="105.9" y="734" width="15" height="15" fill="white"/>
<rect x="90.9004" y="764" width="15" height="15" fill="white"/>
<rect x="60.9004" y="794" width="15" height="15" fill="white"/>
<rect x="552.48" y="60.5" width="15" height="15" fill="white"/>
<rect x="597.48" y="60.5" width="15" height="15" fill="white"/>
<rect x="165.9" y="539" width="15" height="15" fill="white"/>
<rect x="165.9" y="569" width="15" height="15" fill="white"/>
<rect x="165.9" y="599" width="15" height="15" fill="white"/>
<rect x="135.9" y="599" width="15" height="15" fill="white"/>
<rect x="165.9" y="629" width="15" height="15" fill="white"/>
<rect x="135.9" y="629" width="15" height="15" fill="white"/>
<rect x="150.9" y="659" width="15" height="15" fill="white"/>
<rect x="105.9" y="689" width="15" height="15" fill="white"/>
<rect x="75.9004" y="719" width="15" height="15" fill="white"/>
<rect x="60.9004" y="749" width="15" height="15" fill="white"/>
<rect x="45.9004" y="779" width="15" height="15" fill="white"/>
<rect x="15.9004" y="809" width="15" height="15" fill="white"/>
<rect x="225.9" y="599" width="15" height="15" fill="white"/>
<rect x="225.9" y="629" width="15" height="15" fill="white"/>
<rect x="165.9" y="689" width="15" height="15" fill="white"/>
<rect x="135.9" y="719" width="15" height="15" fill="white"/>
<rect x="120.9" y="749" width="15" height="15" fill="white"/>
<rect x="105.9" y="779" width="15" height="15" fill="white"/>
<rect x="75.9004" y="809" width="15" height="15" fill="white"/>
<rect x="75.9004" y="839" width="15" height="15" fill="white"/>
<rect x="165.9" y="584" width="15" height="15" fill="white"/>
<rect x="135.9" y="584" width="15" height="15" fill="white"/>
<rect x="165.9" y="614" width="15" height="15" fill="white"/>
<rect x="150.9" y="644" width="15" height="15" fill="white"/>
<rect x="105.9" y="674" width="15" height="15" fill="white"/>
<rect x="75.9004" y="704" width="15" height="15" fill="white"/>
<rect x="60.9004" y="734" width="15" height="15" fill="white"/>
<rect x="45.9004" y="764" width="15" height="15" fill="white"/>
<rect x="15.9004" y="794" width="15" height="15" fill="white"/>
<rect x="225.9" y="584" width="15" height="15" fill="white"/>
<rect x="225.9" y="614" width="15" height="15" fill="white"/>
<rect x="210.9" y="644" width="15" height="15" fill="white"/>
<rect x="165.9" y="674" width="15" height="15" fill="white"/>
<rect x="135.9" y="704" width="15" height="15" fill="white"/>
<rect x="120.9" y="734" width="15" height="15" fill="white"/>
<rect x="105.9" y="764" width="15" height="15" fill="white"/>
<rect x="75.9004" y="794" width="15" height="15" fill="white"/>
<rect x="60.9004" y="824" width="15" height="15" fill="white"/>
<rect x="582.48" y="75.5" width="15" height="15" fill="white"/>
<rect x="567.48" y="90.5" width="15" height="15" fill="white"/>
<rect x="120.9" y="884" width="15" height="15" fill="white"/>
<rect x="135.9" y="884" width="15" height="15" fill="white"/>
<rect x="105.9" y="854" width="15" height="15" fill="white"/>
<rect x="105.9" y="869" width="15" height="15" fill="white"/>
<rect x="75.9004" y="884" width="15" height="15" fill="white"/>
<rect x="46" y="884" width="15" height="15" fill="white"/>
<rect x="60.9004" y="854" width="15" height="15" fill="white"/>
<rect x="60.9004" y="869" width="15" height="15" fill="white"/>
<rect x="45.9004" y="854" width="15" height="15" fill="white"/>
</svg>
