<svg width="291" height="142" viewBox="0 0 291 142" fill="none" xmlns="http://www.w3.org/2000/svg">
<g clip-path="url(#clip0_51_165)">
<path d="M267.277 132.432C254.278 132.245 242.878 128.709 235.944 125.711L235.755 125.629L235.564 125.704C210.82 135.368 179.423 141.16 145.236 141.16C105.245 141.16 69.0629 133.243 42.8975 120.466C16.6986 107.672 0.695557 90.0924 0.695557 70.83C0.695557 51.5676 16.6961 33.988 42.8937 21.1943C69.0579 8.41684 105.24 0.5 145.236 0.5C185.231 0.5 221.416 8.41684 247.582 21.1943C273.404 33.8031 289.321 51.0605 289.776 69.9959V70.82C289.776 87.54 277.718 102.997 257.369 115.161L257.02 115.369L257.153 115.754C259.193 121.645 264.02 128.479 267.277 132.432Z" fill="white" stroke="black"/>
<path d="M241.001 84.835H244.001V87.835H241.001V84.835Z" fill="black"/>
<path d="M237.321 89.835H230.321V88.835H229.321V85.835H228.321V84.835H231.321C231.321 87.5017 231.321 88.835 231.321 88.835H237.321V89.835ZM239.321 80.835H236.321V83.835H235.321V84.835H234.321C234.321 79.5017 234.321 76.835 234.321 76.835H233.321V75.835H236.321C236.321 78.5017 236.321 79.835 236.321 79.835H239.321V80.835ZM232.321 77.835H230.321V78.835H231.321V81.835H230.321V82.835H226.321V81.835H225.321V78.835H226.321V77.835H224.321V76.835H227.321V75.835H229.321V76.835H232.321V77.835ZM227.321 81.835H229.321V78.835H227.321V81.835Z" fill="black"/>
<path d="M212.961 89.835H203.961V88.835H202.961V85.835H201.961V84.835H204.961C204.961 87.5017 204.961 88.835 204.961 88.835H212.961V89.835ZM214.961 83.835H200.961V82.835H214.961V83.835ZM212.961 80.835H203.961V79.835H202.961C202.961 78.5017 202.961 77.835 202.961 77.835H201.961V76.835H204.961V79.835H212.961V80.835Z" fill="black"/>
<path d="M194.281 84.835H187.281V83.835H186.281V80.835H191.281C191.281 79.5017 191.281 78.835 191.281 78.835H186.281V77.835H193.281C193.281 80.5017 193.281 81.835 193.281 81.835H188.281C188.281 83.1683 188.281 83.835 188.281 83.835H194.281V84.835ZM197.281 88.835V89.835H196.281V76.835H195.281V75.835H198.281V88.835H197.281Z" fill="black"/>
<path d="M177.601 84.835H171.601V83.835H170.601V78.835H169.601V77.835H176.601V78.835H172.601V83.835H177.601V84.835ZM184.601 81.835H181.601V88.835H180.601V89.835H179.601V76.835H178.601V75.835H181.601V80.835H184.601V81.835Z" fill="black"/>
<path d="M165.921 88.835V89.835H164.921V76.835H163.921V75.835H166.921V88.835H165.921ZM156.921 83.835V84.835H154.921V83.835H156.921ZM156.921 83.835V82.835H157.921V81.835H158.921V80.835H159.921C159.921 79.5017 159.921 78.835 159.921 78.835H154.921V77.835H161.921V80.835H160.921V81.835H159.921V82.835H158.921V83.835H156.921Z" fill="black"/>
<path d="M143.561 89.835H135.561V88.835H134.561C134.561 87.5017 134.561 86.835 134.561 86.835H141.561V85.835H134.561V84.835H141.561C141.561 82.1683 141.561 80.835 141.561 80.835H136.561V81.835H135.561V82.835H133.561V83.835H131.561V82.835H133.561V81.835H134.561V80.835H135.561V79.835H136.561C136.561 78.5017 136.561 77.835 136.561 77.835H131.561V76.835H138.561V79.835H141.561V76.835H140.561V75.835H143.561C143.561 81.1683 143.561 83.835 143.561 83.835H142.561V84.835H143.561V87.835H136.561V88.835H143.561V89.835Z" fill="black"/>
<path d="M128.881 86.835H114.881V85.835H128.881V86.835ZM124.881 81.835V82.835H123.881V77.835H116.881V76.835H125.881V81.835H124.881Z" fill="black"/>
<path d="M103.521 88.835V89.835H102.521V76.835H101.521V75.835H104.521V88.835H103.521ZM93.5205 83.835H92.5205V82.835H91.5205V79.835H92.5205V78.835H93.5205V77.835H97.5205V78.835H98.5205V79.835H99.5205V82.835H98.5205V83.835H97.5205V84.835H93.5205V83.835ZM94.5205 83.835H96.5205V82.835H97.5205V79.835H96.5205V78.835H94.5205V79.835H93.5205V82.835H94.5205V83.835Z" fill="black"/>
<path d="M87.8406 89.835H78.8406V88.835H77.8406V85.835H76.8406V84.835H79.8406C79.8406 87.5017 79.8406 88.835 79.8406 88.835H87.8406V89.835ZM89.8406 83.835H83.8406V84.835H81.8406V83.835H75.8406V82.835H89.8406V83.835ZM77.8406 77.835H76.8406V76.835H79.8406C79.8406 78.1683 79.8406 78.835 79.8406 78.835H85.8406V77.835H84.8406V76.835H87.8406V81.835H77.8406C77.8406 79.1683 77.8406 77.835 77.8406 77.835ZM79.8406 80.835H85.8406V79.835H79.8406V80.835Z" fill="black"/>
<path d="M69.1606 84.835H62.1606V83.835H61.1606V80.835H66.1606C66.1606 79.5017 66.1606 78.835 66.1606 78.835H61.1606V77.835H68.1606V80.835H71.1606C71.1606 78.1683 71.1606 76.835 71.1606 76.835H70.1606V75.835H73.1606V88.835H72.1606V89.835H71.1606C71.1606 84.5017 71.1606 81.835 71.1606 81.835H63.1606C63.1606 83.1683 63.1606 83.835 63.1606 83.835H69.1606V84.835Z" fill="black"/>
<path d="M56.4807 88.835V89.835H55.4807V82.835H51.4807V83.835H50.4807V84.835H46.4807V83.835H45.4807V82.835H44.4807V79.835H45.4807V78.835H46.4807V77.835H50.4807V78.835H51.4807V79.835H55.4807V76.835H54.4807V75.835H57.4807V88.835H56.4807ZM47.4807 83.835H49.4807V82.835H50.4807V79.835H49.4807V78.835H47.4807V79.835H46.4807V82.835H47.4807V83.835ZM52.4807 81.835H55.4807V80.835H52.4807V81.835Z" fill="black"/>
<path d="M248.841 60.835H251.841V63.835H248.841V60.835Z" fill="black"/>
<path d="M240.161 60.835H234.161V59.835H233.161V54.835H232.161V53.835H239.161V54.835H235.161V59.835H240.161V60.835ZM247.161 57.835H244.161V64.835H243.161V65.835H242.161V52.835H241.161V51.835H244.161V56.835H247.161V57.835Z" fill="black"/>
<path d="M225.481 60.835H218.481V59.835H217.481V54.835H216.481V53.835H219.481C219.481 57.835 219.481 59.835 219.481 59.835H225.481V60.835ZM228.481 64.835V65.835H227.481V52.835H226.481V51.835H229.481V64.835H228.481Z" fill="black"/>
<path d="M209.801 58.835H207.801V57.835H206.801V56.835H208.801V57.835H209.801V58.835ZM205.801 61.835H204.801V60.835H207.801C207.801 62.1683 207.801 62.835 207.801 62.835H211.801V61.835H210.801V60.835H211.801C211.801 55.5017 211.801 52.835 211.801 52.835H210.801V51.835H213.801C213.801 57.1683 213.801 59.835 213.801 59.835H212.801V60.835H213.801V65.835H205.801C205.801 63.1683 205.801 61.835 205.801 61.835ZM207.801 64.835H211.801V63.835H207.801V64.835ZM203.801 57.835V58.835H201.801V57.835H203.801ZM203.801 57.835V56.835H204.801V55.835H205.801V54.835H206.801V53.835H201.801V52.835H208.801C208.801 54.1683 208.801 54.835 208.801 54.835H207.801V55.835H206.801V56.835H205.801V57.835H203.801Z" fill="black"/>
<path d="M197.121 64.835V65.835H196.121C196.121 60.5017 196.121 57.835 196.121 57.835H193.121V58.835H192.121V59.835H191.121V60.835H187.121V59.835H186.121V58.835H185.121V55.835H186.121V54.835H187.121V53.835H191.121V54.835H192.121V55.835H193.121V56.835H196.121C196.121 54.1683 196.121 52.835 196.121 52.835H195.121V51.835H198.121V64.835H197.121ZM188.121 59.835H190.121V58.835H191.121V55.835H190.121V54.835H188.121V55.835H187.121V58.835H188.121V59.835Z" fill="black"/>
<path d="M181.441 64.835V65.835H180.441V52.835H179.441V51.835H182.441V64.835H181.441ZM171.441 59.835H170.441V58.835H169.441V55.835H170.441V54.835H171.441V53.835H175.441V54.835H176.441V55.835H177.441V58.835H176.441V59.835H175.441V60.835H171.441V59.835ZM172.441 59.835H174.441V58.835H175.441V55.835H174.441V54.835H172.441V55.835H171.441V58.835H172.441V59.835Z" fill="black"/>
<path d="M160.081 59.835H146.081V58.835H152.081C152.081 57.5017 152.081 56.835 152.081 56.835H154.081C154.081 58.1683 154.081 58.835 154.081 58.835H160.081V59.835ZM159.081 57.835H157.081V56.835H156.081V55.835H155.081V54.835H157.081V55.835H158.081V56.835H159.081V57.835ZM157.081 64.835V65.835H156.081C156.081 63.1683 156.081 61.835 156.081 61.835H148.081V60.835H158.081C158.081 63.5017 158.081 64.835 158.081 64.835H157.081ZM149.081 56.835V57.835H147.081V56.835H149.081ZM149.081 56.835V55.835H150.081V54.835H151.081V53.835H152.081V52.835H151.081V51.835H154.081C154.081 53.1683 154.081 53.835 154.081 53.835H155.081V54.835H152.081V55.835H151.081V56.835H149.081Z" fill="black"/>
<path d="M143.401 64.835V65.835H142.401V52.835H141.401V63.835H140.401V64.835H139.401C139.401 60.835 139.401 58.835 139.401 58.835H138.401V57.835H139.401V56.835H137.401V57.835H136.401V58.835H135.401V59.835H133.401V60.835H131.401V59.835H133.401V58.835H134.401V57.835H135.401V56.835H136.401C136.401 55.5017 136.401 54.835 136.401 54.835H131.401V53.835H138.401V52.835H141.401V51.835H144.401V64.835H143.401ZM138.401 55.835H139.401C139.401 54.5017 139.401 53.835 139.401 53.835H138.401C138.401 55.1683 138.401 55.835 138.401 55.835Z" fill="black"/>
<path d="M119.041 65.835H110.041V64.835H109.041V61.835H108.041V60.835H111.041C111.041 63.5017 111.041 64.835 111.041 64.835H119.041V65.835ZM121.041 59.835H107.041V58.835H121.041V59.835ZM119.041 56.835H110.041V55.835H109.041C109.041 54.5017 109.041 53.835 109.041 53.835H108.041V52.835H111.041V55.835H119.041V56.835Z" fill="black"/>
<path d="M105.361 62.835H91.3606V61.835H95.3606V58.835H97.3606V61.835H99.3606V58.835H101.361V61.835H105.361V62.835ZM104.361 58.835H102.361V57.835H101.361V56.835H100.361V55.835H102.361V56.835H103.361V57.835H104.361V58.835ZM94.3606 57.835V58.835H92.3606V57.835H94.3606ZM94.3606 57.835V56.835H95.3606V55.835H96.3606V54.835H97.3606V53.835H96.3606V52.835H99.3606C99.3606 54.1683 99.3606 54.835 99.3606 54.835H100.361V55.835H97.3606V56.835H96.3606V57.835H94.3606Z" fill="black"/>
<path d="M82.0007 62.835H68.0007V61.835H74.0007V58.835H76.0007V61.835H82.0007V62.835ZM79.0007 57.835H71.0007V56.835H70.0007V53.835H69.0007V52.835H79.0007V53.835H72.0007V56.835H79.0007V57.835Z" fill="black"/>
<path d="M65.3206 64.835V65.835H64.3206C64.3206 60.5017 64.3206 57.835 64.3206 57.835H63.3206C63.3206 61.835 63.3206 63.835 63.3206 63.835H62.3206V64.835H61.3206C61.3206 62.1683 61.3206 60.835 61.3206 60.835H54.3206V59.835H53.3206V56.835H58.3206C58.3206 55.5017 58.3206 54.835 58.3206 54.835H53.3206V53.835H60.3206V52.835H63.3206V51.835H66.3206V64.835H65.3206ZM55.3206 59.835H61.3206C61.3206 55.835 61.3206 53.835 61.3206 53.835H60.3206C60.3206 56.5017 60.3206 57.835 60.3206 57.835H55.3206C55.3206 59.1683 55.3206 59.835 55.3206 59.835ZM63.3206 56.835H64.3206C64.3206 54.1683 64.3206 52.835 64.3206 52.835H63.3206C63.3206 55.5017 63.3206 56.835 63.3206 56.835Z" fill="black"/>
<path d="M50.6406 62.835H36.6406V61.835H50.6406V62.835ZM46.6406 57.835V58.835H45.6406V53.835H38.6406V52.835H47.6406V57.835H46.6406Z" fill="black"/>
</g>
<defs>
<clipPath id="clip0_51_165">
<rect width="290.09" height="141.67" fill="white" transform="translate(0.195557)"/>
</clipPath>
</defs>
</svg>
